<svg id="Layer_1" data-name="Layer 1" xmlns="http://www.w3.org/2000/svg" viewBox="0 0 157.34 45.44"><defs><style>.cls-1,.cls-2,.cls-3,.cls-4,.cls-5,.cls-9{fill:none;}.cls-1,.cls-2{stroke:#2c3237;}.cls-1,.cls-3,.cls-4,.cls-5{stroke-linecap:round;stroke-linejoin:round;}.cls-1,.cls-2,.cls-3,.cls-4,.cls-5{stroke-width:2.5px;}.cls-2{stroke-miterlimit:10;}.cls-3{stroke:#00a859;}.cls-4{stroke:#bc2026;}.cls-5{stroke:#f36e21;}.cls-6,.cls-7,.cls-8{isolation:isolate;}.cls-7{font-size:28.3px;fill:#0e0a0a;}.cls-7,.cls-8{font-family:Poppins-Regular, Poppins;}.cls-8{font-size:11.1px;fill:#2c3237;}.cls-9{stroke:#707071;}</style></defs><title>logo</title><g id="Group_136" data-name="Group 136"><g id="Group_133" data-name="Group 133"><line id="Line_9" data-name="Line 9" class="cls-1" x1="15.56" y1="1.25" x2="21" y2="1.25"/><line id="Line_10" data-name="Line 10" class="cls-1" x1="30.99" y1="9.66" x2="32.92" y2="7.73"/><circle id="Ellipse_9" data-name="Ellipse 9" class="cls-2" cx="18.28" cy="22.3" r="17.03"/><line id="Line_11" data-name="Line 11" class="cls-1" x1="17.9" y1="22.75" x2="9.24" y2="14.09"/><circle id="Ellipse_10" data-name="Ellipse 10" class="cls-2" cx="17.9" cy="22.75" r="1.37"/><path id="Path_84" data-name="Path 84" class="cls-3" d="M216.6,416.86a12.08,12.08,0,0,0,2.7,13.3,12.27,12.27,0,0,0,17.34,0h0" transform="translate(-210.04 -398.74)"/><path id="Path_85" data-name="Path 85" class="cls-4" d="M238.84,427.53a12.27,12.27,0,0,0-3.07-16.89" transform="translate(-210.04 -398.74)"/><path id="Path_86" data-name="Path 86" class="cls-5" d="M232.33,409.12a10.83,10.83,0,0,0-9.17.44" transform="translate(-210.04 -398.74)"/></g><g id="Group_134" data-name="Group 134"><g id="Group_135" data-name="Group 135"><g id="On_Point" data-name="On Point" class="cls-6"><text class="cls-7" transform="translate(39.54 29.25)">On Point</text></g><g id="Appointment_System" data-name="Appointment System" class="cls-6"><text class="cls-8" transform="translate(40.54 39.03)">Appointment System</text></g></g><path id="Path_91" data-name="Path 91" class="cls-9" d="M251.32,430" transform="translate(-210.04 -398.74)"/></g></g></svg>